# xmcd
#
# Track frame offsets: 
#        150
#        16465
#        34767
#        51032
#        67507
#        88270
#
# Disc length: 1474 seconds
#
# Revision: 0
# Processed by: cddbd v1.4PL0 Copyright (c) Steve Scherf et al.
# Submitted via: ExactAudioCopy v0.90b4
#
DISCID=4105c006
DTITLE=Woodeye - Hock
DYEAR=1997
DGENRE=Country
TTITLE0=Undone
TTITLE1=The Fray
TTITLE2=The Middle
TTITLE3=Mr. Goodenough
TTITLE4=And I Will
TTITLE5=Miserable
EXTD=
EXTT0=
EXTT1=
EXTT2=
EXTT3=
EXTT4=
EXTT5=
PLAYORDER=
